<?xml version="1.0" standalone="no"?>
<!DOCTYPE svg PUBLIC "-//W3C//DTD SVG 20010904//EN"
 "http://www.w3.org/TR/2001/REC-SVG-20010904/DTD/svg10.dtd">
<svg version="1.0" xmlns="http://www.w3.org/2000/svg"
 width="1024.000000pt" height="1024.000000pt" viewBox="0 0 1024.000000 1024.000000"
 preserveAspectRatio="xMidYMid meet">

<g transform="translate(0.000000,1024.000000) scale(0.100000,-0.100000)"
fill="#000000" stroke="none">
<path d="M0 5120 l0 -5120 5120 0 5120 0 0 5120 0 5120 -5120 0 -5120 0 0
-5120z m5355 3285 c537 -83 992 -463 1160 -968 48 -144 66 -243 72 -388 13
-289 -50 -526 -234 -879 -174 -335 -501 -830 -866 -1310 -257 -338 -324 -393
-416 -346 -120 62 -672 799 -998 1331 -230 375 -345 625 -395 858 -31 147 -32
419 0 563 101 463 372 813 787 1014 272 131 574 174 890 125z m-773 -3685 l37
-49 -57 -6 c-262 -29 -490 -77 -582 -123 -48 -24 -55 -31 -55 -57 0 -26 7 -33
55 -57 116 -58 433 -116 765 -139 334 -23 902 1 1185 52 409 72 503 151 274
229 -84 29 -271 67 -430 86 l-140 17 30 48 c36 54 15 53 260 18 294 -43 476
-112 521 -199 82 -159 -161 -274 -702 -334 -854 -96 -1803 9 -1940 213 -82
121 55 232 367 296 68 14 321 51 365 53 6 1 27 -21 47 -48z m-2634 -923 c388
-135 498 -682 198 -983 -112 -112 -237 -164 -396 -164 -159 0 -284 52 -396
164 -121 121 -169 256 -162 451 4 85 11 127 31 185 67 188 214 322 403 364 97
22 230 15 322 -17z m3692 23 c36 -6 89 -17 118 -26 l52 -15 0 -129 c0 -128 0
-130 -23 -130 -18 0 -26 10 -39 48 -24 67 -72 128 -126 160 -39 22 -59 27
-118 27 -60 0 -77 -4 -111 -27 -56 -37 -88 -103 -79 -165 13 -99 61 -140 273
-235 116 -52 147 -71 194 -118 71 -71 94 -131 87 -235 -8 -126 -75 -223 -194
-281 -57 -28 -64 -29 -204 -29 -109 0 -164 5 -222 19 l-78 19 0 153 c0 147 1
154 20 154 14 0 20 -7 20 -21 0 -37 59 -146 97 -179 51 -45 116 -72 188 -78
71 -5 122 8 166 45 43 37 59 74 59 141 0 101 -51 149 -244 229 -180 75 -257
146 -297 276 -48 153 13 287 162 363 85 42 177 53 299 34z m2432 -225 l-4
-115 127 0 c112 0 126 -2 121 -16 -3 -9 -6 -24 -6 -35 0 -18 -8 -19 -120 -19
l-120 0 0 -286 0 -286 34 -34 c30 -30 40 -34 85 -34 29 0 68 7 88 15 27 11 39
12 47 4 15 -15 -31 -52 -119 -95 -103 -50 -185 -46 -248 14 -50 48 -57 96 -57
414 l0 288 -65 0 c-55 0 -65 3 -65 18 0 10 18 27 45 41 51 27 146 124 191 194
18 29 36 46 49 47 19 0 20 -5 17 -115z m-5402 -155 l0 -59 44 29 c84 57 146
80 217 80 99 0 153 -23 226 -95 53 -53 64 -71 83 -134 43 -141 16 -320 -67
-440 -89 -129 -281 -192 -451 -147 l-52 13 0 -133 c0 -76 5 -143 11 -157 14
-30 48 -47 94 -47 31 0 35 -3 35 -25 l0 -25 -211 0 -210 0 3 22 c2 16 12 24
37 29 45 9 62 28 72 81 10 56 10 798 0 862 -10 57 -37 86 -82 86 -21 0 -29 5
-29 18 0 15 26 26 133 59 72 22 135 41 140 42 4 0 7 -26 7 -59z m1227 20 c100
-49 153 -136 169 -273 l7 -58 -273 3 -273 3 6 -72 c13 -168 99 -261 253 -271
91 -6 162 11 224 53 27 18 51 31 54 28 8 -8 -31 -79 -65 -117 -64 -74 -201
-116 -311 -96 -173 32 -287 155 -307 332 -17 155 23 290 116 389 111 118 260
148 400 79z m523 -30 l0 -59 66 41 c112 67 151 81 234 82 96 1 144 -22 180
-85 25 -43 25 -48 30 -334 3 -159 9 -298 14 -308 11 -23 38 -37 70 -37 21 0
26 -5 26 -25 l0 -25 -190 0 -190 0 0 25 c0 21 5 25 29 25 16 0 39 9 52 19 l24
19 0 259 c0 228 -2 262 -18 290 -24 44 -64 63 -136 63 -47 0 -72 -6 -123 -33
l-63 -33 0 -271 c0 -250 1 -273 19 -291 10 -12 32 -22 49 -24 26 -2 32 -7 32
-28 l-1 -25 -192 -3 -192 -2 0 25 c0 21 5 25 29 25 17 0 42 10 58 24 l28 24 3
259 c2 161 -1 271 -7 294 -11 38 -42 59 -86 59 -17 0 -25 6 -25 18 0 14 23 25
118 51 64 19 124 37 132 42 24 12 30 1 30 -61z m1812 9 l3 -47 70 40 c132 75
226 81 337 21 61 -33 103 -80 137 -153 24 -50 26 -66 26 -180 0 -143 -21 -220
-81 -303 -94 -129 -290 -191 -450 -142 -27 8 -50 15 -51 15 -2 0 -3 -60 -3
-134 0 -130 1 -136 26 -165 20 -24 36 -32 75 -37 43 -6 49 -9 49 -30 l0 -24
-205 0 -205 0 0 23 c0 19 8 26 40 36 28 8 44 20 50 37 6 15 10 215 10 480 l0
455 -25 24 c-15 16 -36 25 -55 25 -23 0 -30 4 -30 19 0 15 13 23 58 36 31 9
91 27 132 39 41 13 78 21 82 17 4 -3 8 -27 10 -52z m1254 22 c250 -117 309
-465 115 -683 -107 -120 -307 -156 -457 -83 -155 76 -247 267 -216 448 48 277
317 431 558 318z m1329 28 c32 -6 76 -18 97 -26 l38 -15 0 -104 c0 -92 -2
-104 -17 -104 -12 0 -28 22 -48 62 -37 76 -82 114 -156 130 -49 10 -60 9 -95
-8 -50 -24 -76 -72 -63 -116 15 -53 57 -85 182 -140 143 -62 190 -94 217 -148
68 -134 7 -286 -136 -340 -51 -19 -73 -21 -159 -17 -62 3 -125 13 -167 26
l-68 22 0 94 c0 52 0 98 0 103 0 4 6 7 13 7 6 0 21 -20 33 -45 43 -92 118
-139 222 -140 103 0 152 38 152 119 0 37 -5 49 -35 76 -19 19 -66 45 -107 60
-127 47 -196 84 -231 125 -94 110 -69 266 52 338 83 49 167 61 276 41z"/>
<path d="M4895 8265 c-184 -30 -381 -108 -545 -218 -98 -65 -263 -231 -330
-331 -148 -222 -222 -463 -223 -726 0 -346 109 -614 430 -1054 115 -157 255
-338 259 -333 2 1 15 224 29 494 24 451 24 494 10 530 -10 25 -52 75 -114 135
-167 162 -182 214 -150 518 44 432 46 443 65 457 26 19 51 16 75 -8 20 -20 21
-29 16 -123 -16 -262 -19 -503 -8 -525 25 -45 107 -46 131 -1 6 11 10 144 10
324 0 293 1 307 20 326 24 24 53 26 74 4 20 -20 19 9 20 -340 1 -279 2 -303
20 -322 21 -25 51 -31 87 -19 48 15 49 32 37 358 l-12 302 23 18 c29 24 43 24
70 2 19 -16 23 -46 52 -338 34 -353 33 -389 -17 -486 -17 -36 -62 -88 -129
-154 -78 -76 -106 -110 -115 -140 -10 -34 -5 -144 24 -615 20 -316 39 -608 42
-649 l7 -73 160 -170 c176 -186 202 -206 235 -182 51 35 374 400 590 667 l112
137 -316 0 c-198 0 -322 4 -335 10 -25 14 -25 56 1 70 10 6 62 19 115 30 110
23 143 37 178 80 33 38 37 63 40 225 3 173 -4 186 -182 357 -161 153 -193 197
-227 303 -36 114 -35 214 5 430 38 203 47 232 71 245 25 13 775 13 799 0 26
-13 27 -18 66 -244 38 -221 42 -290 20 -384 -29 -123 -64 -174 -231 -337 -193
-188 -194 -190 -194 -380 0 -127 2 -144 23 -180 28 -50 81 -80 177 -100 40 -8
74 -14 75 -13 29 35 244 344 277 398 57 92 139 262 168 350 61 181 79 434 45
615 -96 516 -486 920 -1005 1042 -134 31 -387 40 -525 18z"/>
<path d="M5256 7258 c-14 -62 -27 -126 -28 -143 l-3 -30 368 -3 367 -4 -1 29
c0 15 -11 80 -22 143 l-22 115 -316 3 -317 2 -26 -112z"/>
<path d="M1677 3750 c-61 -16 -110 -45 -154 -93 -85 -93 -116 -193 -117 -382
-2 -337 127 -546 341 -547 124 -2 206 40 271 136 59 88 77 169 77 346 0 131
-4 167 -23 234 -44 152 -96 233 -180 279 -57 31 -151 43 -215 27z"/>
<path d="M2780 3383 c-8 -3 -36 -19 -62 -37 l-48 -31 0 -234 c0 -217 1 -236
21 -270 29 -52 64 -74 125 -79 87 -7 121 4 174 57 38 38 53 63 69 116 27 86
29 239 4 314 -20 63 -74 128 -127 152 -39 18 -122 24 -156 12z"/>
<path d="M3685 3415 c-50 -18 -109 -82 -129 -142 -27 -77 -37 -73 165 -73
l182 0 -7 56 c-3 30 -15 72 -25 92 -33 65 -113 94 -186 67z"/>
<path d="M6322 3375 c-18 -8 -47 -24 -63 -35 l-29 -21 0 -235 c0 -214 2 -238
20 -273 55 -110 234 -113 315 -7 48 64 68 139 69 267 1 114 0 118 -34 185 -28
54 -45 74 -83 98 -58 36 -143 45 -195 21z"/>
<path d="M7256 3416 c-54 -20 -102 -71 -128 -135 -19 -49 -22 -75 -22 -196 0
-123 2 -147 23 -198 26 -65 69 -120 112 -143 15 -7 54 -14 85 -14 86 0 134 32
176 117 33 67 33 69 33 208 0 156 -13 211 -65 284 -51 70 -143 103 -214 77z"/>
</g>
</svg>
