<svg viewBox="0 0 46 46" xmlns="http://www.w3.org/2000/svg" width="46" height="46">
  <path fill="#4285F4" d="M23 9.5c3.86 0 6.8 1.67 8.37 3.07l6.17-6.17C32.75 3.35 28.39 2 23 2 14.73 2 7.14 7.88 4.42 15.44l7.45 5.8C13.4 15.26 17.7 9.5 23 9.5z"></path>
  <path fill="#34A853" d="M45.5 23c0-1.68-.17-3.29-.49-4.82H23v9.14h12.48c-.54 2.9-2.21 5.37-4.72 7.04l7.2 5.6c4.2-3.86 6.54-9.57 6.54-16.96z"></path>
  <path fill="#FBBC05" d="M11.87 27.07a13.68 13.68 0 0 1 0-8.14v-5.8H4.42a23.996 23.996 0 0 0 0 20.93l7.45-5.8z"></path>
  <path fill="#EA4335" d="M23 45c6.18 0 11.37-2.05 15.17-5.54l-7.2-5.6c-2.13 1.43-4.85 2.27-7.97 2.27-5.31 0-9.83-3.58-11.46-8.4l-7.45 5.8C7.14 38.12 14.73 45 23 45z"></path>
  <path fill="none" d="M0 0h46v46H0z"></path>
</svg>
