<svg xmlns="http://www.w3.org/2000/svg" viewBox="0 0 96 96">
  <g transform="matrix(0.16261747,0,0,0.16261747,-8.54,-8.54)" fill="rgb(8, 58, 90)">
    <g>
      <path d="M350,640.9c-76.1,0-147.7-9.6-201.7-27c-58.4-18.8-89.2-44.3-89.2-73.6c0-37.7,52.5-69.6,144-87.4c5.4-1.1,10.7,2.5,11.7,7.9s-2.5,10.7-7.9,11.7c-39.7,7.7-72.7,18.6-95.6,31.3C96.6,512,79,525,79,540.3c0,38.1,111.3,80.6,270.9,80.6s270.9-42.5,270.9-80.6c0-15.2-17.6-28.2-32.3-36.5c-22.8-12.8-55.9-23.6-95.5-31.3c-5.4-1.1-9-6.3-7.9-11.7c1.1-5.4,6.3-9,11.7-7.9c91.5,17.8,144,49.7,144,87.4c0,29.3-30.8,54.8-89.2,73.6C497.7,631.3,426.1,640.9,350,640.9z"/>
    </g>
    <g>
      <path d="M350,550.3c-2.7,0-5.2-1.1-7.1-2.9c-0.5-0.5-46.3-46.5-91.5-105.2c-61.5-80-92.7-144.5-92.7-191.9c0-105.5,85.8-191.2,191.2-191.2s191.2,85.8,191.2,191.2c0,47.4-31.2,111.9-92.7,191.9c-45.2,58.7-91,104.7-91.5,105.2C355.2,549.3,352.7,550.3,350,550.3z M350,79.1c-94.4,0-171.2,76.8-171.2,171.2c0,91.4,138.1,241.1,171.2,275.7c33.1-34.6,171.2-184.2,171.2-275.7C521.2,155.9,444.4,79.1,350,79.1z"/>
    </g>
    <g>
      <path d="M395.3,242.2c-5.5,0-10-4.5-10-10v-54.4c0-5.5,4.5-10,10-10s10,4.5,10,10v54.4C405.3,237.7,400.8,242.2,395.3,242.2z"/>
      <path d="M395.3,369.1c-15.5,0-28.1-12.6-28.1-28.1v-63.9c-15.7-4.4-27.2-18.8-27.2-35.8v-72.5c0-5.5,4.5-10,10-10s10,4.5,10,10v72.5c0,9.5,7.7,17.2,17.2,17.2c5.5,0,10,4.5,10,10V341c0,4.5,3.6,8.1,8.1,8.1s8.1-3.6,8.1-8.1v-72.5c0-5.5,4.5-10,10-10c9.5,0,17.2-7.7,17.2-17.2v-72.5c0-5.5,4.5-10,10-10s10,4.5,10,10v72.5c0,17-11.5,31.4-27.2,35.8V341C423.4,356.4,410.8,369.1,395.3,369.1z"/>
    </g>
    <g>
      <path d="M295.6,369.1c-15.5,0-28.1-12.6-28.1-28.1v-50.2l-15.2-15.2c-1.9-1.9-2.9-4.4-2.9-7.1v-36.2c0-37.5,17.5-55.6,32.1-64.1c15.7-9.2,31.6-9.3,32.2-9.3c5.5,0,10,4.5,10,10v172.2C323.8,356.4,311.1,369.1,295.6,369.1z M269.4,264.3l15.2,15.2c1.9,1.9,2.9,4.4,2.9,7.1V341c0,4.5,3.6,8.1,8.1,8.1s8.1-3.6,8.1-8.1V180.3c-3.8,1-8.3,2.7-12.8,5.3c-14.3,8.7-21.6,24.3-21.6,46.5L269.4,264.3z"/>
    </g>
  </g>
</svg>
